<?xml version="1.0" encoding="utf-8"?>
<!-- Generator: Adobe Adobe Illustrator 24.2.0, SVG Export Plug-In . SVG Version: 6.00 Build 0)  -->
<svg version="1.1" id="Layer_1" xmlns="http://www.w3.org/2000/svg" xmlns:xlink="http://www.w3.org/1999/xlink" x="0px" y="0px"
	 width="645.8px" height="92.66px" viewBox="0 0 645.8 92.66" style="enable-background:new 0 0 645.8 92.66;" xml:space="preserve"
	>
<style type="text/css">
	.st0{fill:#FF2A0C;}
</style>
<g>
	<path d="M43.42,43.95h38.92V81.8c-9.27,5.29-21.05,10.85-39.84,10.85C18.53,92.66,0,79.69,0,59.57V32.3C0,12.31,19.72,0,42.89,0
		c14.3,0,27.93,3.84,36.4,9.93l-4.77,8.6c-7.41-5.03-18.8-8.47-31.11-8.47c-17.21,0-31.9,8.74-31.9,23.16v25.42
		c0,14.96,14.03,23.96,30.97,23.96c13.11,0,21.18-3.31,28.33-7.02V53.48h-27.4V43.95z"/>
	<path d="M153.29,51.23l23.56,40.11h-12.71l-22.11-37.59h-32.56v37.59H97.96V1.32h46.2c18.66,0,30.84,9,30.84,24.36v3.18
		C175,41.3,165.86,48.71,153.29,51.23 M109.47,44.21h34.81c9.53-0.4,19.06-5.03,19.06-14.69v-3.31c0-8.87-7.81-14.83-19.86-14.83
		h-34.02V44.21z"/>
	<path d="M235.89,0.26l39.71,91.07h-12.84l-11.52-26.47h-43.29l-11.78,26.47h-12.71l40.11-91.07H235.89z M248.47,55.2l-18.8-42.36
		L210.74,55.2H248.47z"/>
	<path d="M341.79,44.61c11.78,3.18,19.46,10.19,19.46,20.52v3.97c0,14.43-12.18,22.24-30.97,22.24h-44.61V1.32h41.3
		c19.19,0,30.97,8.34,30.97,22.9v2.38C357.94,34.55,351.45,41.96,341.79,44.61 M297.18,40.5h30.05c11.12,0,19.19-4.76,19.19-13.37
		v-2.38c0-10.06-6.88-13.9-20.78-13.9h-28.46V40.5z M349.73,64.33c0-9.66-9.53-14.69-21.97-14.69h-30.58V81.8h31.77
		c12.31,0,20.78-4.1,20.78-13.63V64.33z"/>
	<path class="st0" d="M394.74,34.28v23.83c0,12.44,9.66,17.47,22.9,17.47c10.06,0,19.06-1.85,25.95-5.96l6.62,14.82
		c-9.53,5.96-18.4,8.21-33.75,8.21c-24.09,0-41.96-11.25-41.96-33.36V33.22C374.49,12.57,393.82,0,416.32,0
		c15.22,0,25.02,2.38,34.81,9l-7.28,14.43c-7.15-4.1-15.22-6.35-26.34-6.35C405.33,17.08,394.74,23.16,394.74,34.28"/>
	<path class="st0" d="M516,0.53l36.27,90.81h-22.37l-7.55-19.72h-35.21l-7.68,19.72h-22.37l36.53-90.81H516z M518.51,56.26
		l-13.63-35.74l-13.9,35.74H518.51z"/>
	<path class="st0" d="M605.03,1.32c23.83,0,40.77,10.85,40.77,34.42v21.18c0,23.69-18.66,34.42-42.23,34.42H562.8V1.32H605.03z
		 M626.66,39.05c0-14.69-9.13-21.18-20.78-21.18h-22.37v56.92h20.92c11.91,0,22.24-5.96,22.24-21.18V39.05z"/>
</g>
</svg>
