<?xml version="1.0" encoding="utf-8"?>
<!-- Generator: Adobe Adobe Illustrator 24.2.0, SVG Export Plug-In . SVG Version: 6.00 Build 0)  -->
<svg version="1.1" id="Layer_1" xmlns="http://www.w3.org/2000/svg" xmlns:xlink="http://www.w3.org/1999/xlink" x="0px" y="0px"
	 width="194px" height="114.55px" viewBox="0 0 194 114.55" style="enable-background:new 0 0 194 114.55;" xml:space="preserve">
<style type="text/css">
	.st0{fill:#3CB371;}
	.st1{fill:#FFFFFF;}
	.st2{fill:url(#SVGID_1_);}
	.st3{fill:none;stroke:#260303;stroke-miterlimit:10;}
</style>
<g>
	<g id="SPLINE_30_">
		<path class="st3" d="M31.08,55.92c0,0,14.4-43.2,56-43.2s49.85,43.2,49.85,43.2s-26.8,10-52.92,10S31.08,55.92,31.08,55.92z"/>
	</g>
	<g id="SPLINE_14_">
		<path class="st3" d="M141.93,58.73c13.61-12.18,14.23-36.87,17.98-39.99s12.18-5.31,16.87-3.75c4.69,1.56,2.5,13.36,0,13.86
			c-2.5,0.51-6.87,2.69-6.87,2.69s-12.5,30.3-23.43,34.37"/>
	</g>
	<g id="SPLINE_13_">
		<path class="st3" d="M136.12,60.61c0,0,14.62,19.08,14.62,23.55c0,4.47-0.46,15.02-10.38,10.56
			c-9.92-4.47-17.23-29.23-17.23-29.23S131.88,63.04,136.12,60.61z"/>
	</g>
	<g id="SPLINE_12_">
		<path class="st3" d="M43.29,65.98c0,0-2.37,24.22-5.45,27.52c-3.09,3.3-10.72,10.8-14.97,0.64s7.45-33.53,7.45-33.53
			S38.47,64.85,43.29,65.98z"/>
	</g>
	<g id="SPLINE_11_">
		<circle class="st3" cx="166.93" cy="19.02" r="1.73"/>
	</g>
	<g id="SPLINE_10_">
		<path class="st3" d="M47.28,65.92c2.11,1.19,4.79,1.8,7.33,2.09c4.22,0.5,8.02,0.13,8.02,0.13"/>
	</g>
	<g id="POLYLINE_8_">
		<line class="st3" x1="53.38" y1="84.43" x2="54.61" y2="68.01"/>
	</g>
	<g id="SPLINE_9_">
		<path class="st3" d="M68.92,85.91c-4.09-0.5-5.26-4.84-5.13-9.69c0.07-2.73,2.48-6.8,5.6-7.02c3.12-0.22,7.4,1.23,7.19,7.02
			C76.32,82.94,74.94,86.65,68.92,85.91z"/>
	</g>
	<g id="SPLINE_8_">
		<path class="st3" d="M80.92,86.38l2.89-16.17c0.1-0.57,0.9-0.64,1.09-0.09l4.96,14.16c0.19,0.55,1,0.48,1.09-0.1l2.43-14.91
			c0.09-0.57,0.88-0.65,1.09-0.11l5.66,16.12"/>
	</g>
	<g id="POLYLINE_3_">
		<polyline class="st3" points="100.12,68.19 109.33,75.76 111.99,65.92 		"/>
	</g>
	<g id="POLYLINE_2_">
		<line class="st3" x1="111.32" y1="83.21" x2="109.33" y2="75.76"/>
	</g>
	<g id="SPLINE_7_">
		<path class="st3" d="M115.34,69.95c0.14,0.63-0.85,3.5-0.85,3.5"/>
	</g>
	<g id="SPLINE_6_">
		<path class="st3" d="M120.43,73.57c-0.74-0.19-2.45-0.23-2.68,0.66c-0.23,0.89-0.47,2.22,0.74,2.18c1.21-0.04,2.3-0.82,2.68-0.39
			c0.39,0.43,1.17,0.74,0.82,2.26c-0.35,1.52-3.5,0.86-3.5,0.86"/>
	</g>
	<g id="POLYLINE_1_">
		<polyline class="st3" points="24.09,60.61 21.39,68.01 8.39,57.13 24.09,60.61 		"/>
	</g>
	<g id="SPLINE_5_">
		<circle class="st3" cx="163.41" cy="96.11" r="2.01"/>
	</g>
	<g id="HATCH_10_">
		<circle class="st3" cx="163.41" cy="96.11" r="2.01"/>
	</g>
	<g id="SPLINE_4_">
		<circle class="st3" cx="169.26" cy="94.87" r="2.01"/>
	</g>
	<g id="HATCH_4_">
		<circle class="st3" cx="169.26" cy="94.87" r="2.01"/>
	</g>
	<g id="SPLINE_3_">
		<circle class="st3" cx="175.58" cy="96.11" r="2.01"/>
	</g>
	<g id="HATCH_3_">
		<circle class="st3" cx="175.58" cy="96.11" r="2.01"/>
	</g>
	<g id="SPLINE_2_">
		<circle class="st3" cx="175.58" cy="89.23" r="2.01"/>
	</g>
	<g id="HATCH_2_">
		<circle class="st3" cx="175.58" cy="89.23" r="2.01"/>
	</g>
	<g id="SPLINE_1_">
		<circle class="st3" cx="169.26" cy="89.23" r="2.01"/>
	</g>
	<g id="HATCH_1_">
		<circle class="st3" cx="169.26" cy="89.23" r="2.01"/>
	</g>
</g>
</svg>
