<?xml version="1.0" encoding="utf-8"?>
<!-- Generator: Adobe Adobe Illustrator 24.2.0, SVG Export Plug-In . SVG Version: 6.00 Build 0)  -->
<svg version="1.1" id="Layer_1" xmlns="http://www.w3.org/2000/svg" xmlns:xlink="http://www.w3.org/1999/xlink" x="0px" y="0px"
	 width="325.79px" height="327.97px" viewBox="0 0 325.79 327.97" style="enable-background:new 0 0 325.79 327.97;"
	 xml:space="preserve">
<style type="text/css">
	.st0{fill:#3CB371;}
	.st1{fill:#FFFFFF;}
	.st2{fill:url(#SVGID_1_);}
	.st3{fill:none;stroke:#260303;stroke-miterlimit:10;}
	.st4{fill:#D1D1D1;}
	.st5{fill:#3CB371;stroke:#3CB371;stroke-width:5;stroke-miterlimit:10;}
	.st6{fill:#00CC81;}
	.st7{fill:none;stroke:#00CC81;stroke-width:5;stroke-miterlimit:10;}
</style>
<rect class="st5" width="325.79" height="327.97"/>
<path class="st6" d="M223.97,150.64l43.3,45.98c0,0,14.03-25.47-2.79-43.45S223.97,150.64,223.97,150.64z"/>
<path class="st6" d="M253.67,191.33c0,0-6.82,7.62-2.76,11.68c4.06,4.06,7.48-6.3,7.48-6.3L253.67,191.33z"/>
<polygon class="st6" points="224.18,150.64 222.32,160.54 257.71,198.55 267.47,196.62 "/>
<polygon class="st6" points="256.85,197.41 266.43,205.93 263.24,195.73 "/>
<path class="st6" d="M224.95,150.86c0,0,0.45-15.98-6.77-15.98c-7.23,0-5.54,6.76-5.38,7.99c0.57,4.69,9.38,17.37,9.38,17.37"/>
<path class="st6" d="M221.52,156.3c0,0-12.03,3.15-9.32,7.74c2.72,4.59,12.73-2.76,12.73-2.76L221.52,156.3z"/>
<polygon class="st7" points="15.47,109.77 62.74,105.59 28.53,132.23 39.24,84.96 57.78,132.49 "/>
<circle class="st7" cx="290.14" cy="294.89" r="21.42"/>
<polyline class="st7" points="28.74,212.72 40.04,190.99 58.59,201.42 66.99,182.3 86.12,185.2 "/>
<polygon class="st7" points="252.06,56.62 279.88,26.77 285.39,67.34 "/>
<path class="st6" d="M50.33,290.46c0,0-14.26,3.98-15.17-3.65c-0.9-7.63,16.49-2.75,16.49-2.75L50.33,290.46z"/>
<path class="st6" d="M101.32,288.55l-53.85-4.58c0,0,4.74-30.15,30.17-26.16C103.07,261.8,101.32,288.55,101.32,288.55z"/>
<polygon class="st6" points="47.47,283.97 48.79,291.29 99.09,294.89 101.32,288.55 "/>
<polygon class="st6" points="100.48,289.86 107.5,293.78 98.67,294.23 "/>
<path class="st7" d="M148.7,302.7c3.12,1.37,6.33,2.76,9.73,2.9c3.4,0.14,7.09-1.24,8.72-4.23c1.81-3.31,0.64-7.4,1.07-11.15
	c0.88-7.77,10.04-13.4,17.37-10.67c4.96,1.85,8.9,6.72,14.19,6.66c5.69-0.06,9.55-5.8,11.49-11.15c0.78-2.17,1.44-4.41,2.64-6.38
	c2.91-4.77,8.44-7.15,13.62-9.24"/>
<line class="st7" x1="134.63" y1="113.91" x2="162.76" y2="139.86"/>
<path class="st7" d="M134.96,142.87c0-0.27,22.13-34.15,22.13-34.15"/>
<path class="st6" d="M99.42,30c-1.58-5.31-1.76-12.82,1.32-18.5c0.92-1.69,2.12-3.19,3.48-4.53c-1.5-0.26-3.04-0.4-4.61-0.4
	c-15.02,0-27.2,12.18-27.2,27.2c0,15.02,12.18,27.2,27.2,27.2c11.52,0,21.36-7.17,25.32-17.28C114.64,44.79,102.63,40.82,99.42,30z"
	/>
</svg>
